<svg xmlns="http://www.w3.org/2000/svg" width="939.084" height="675.299" viewBox="0 0 939.084 675.299">
  <g id="undraw_Sign_in_re_o58h" transform="translate(0 92.051)">
    <path id="Path_368" data-name="Path 368" d="M227.852,728.43c-.077-.341-7.568-34.5,7.73-62.871s47.954-40.882,48.282-41.005l1.492-.56.353,1.556c.077.341,7.568,34.5-7.73,62.871S230.025,729.3,229.7,729.426l-1.493.56ZM283.31,627.79c-6.541,2.814-32.358,15.129-45.278,39.09s-9.023,52.3-7.78,59.31c6.538-2.807,32.345-15.1,45.278-39.09,12.921-23.963,9.023-52.3,7.779-59.311Z" transform="translate(-167.443 -146.737)" fill="#f1f1f1"/>
    <path id="Path_369" data-name="Path 369" d="M265.653,666.405c-27.492,16.54-38.08,49.393-38.08,49.393s33.985,6.036,61.477-10.5S327.13,655.9,327.13,655.9,293.144,649.865,265.653,666.405Z" transform="translate(-166.808 -134.674)" fill="#f1f1f1"/>
    <path id="Path_370" data-name="Path 370" d="M567.876,486.614a15.077,15.077,0,0,0-14.58-17.943l-12.731-32.016-21.343,2.991,18.614,44.96a15.159,15.159,0,0,0,30.04,2.007Z" transform="translate(-52.699 -220.034)" fill="#9f616a"/>
    <path id="Path_371" data-name="Path 371" d="M539.379,531.831l-6.613-15.77-41.211-78.446L493.8,292.464l.43-.057c26.37-3.484,44.212,118.018,44.958,123.192l26.038,89.051,6.2,19.628Z" transform="translate(-63.524 -276.5)" fill="#6c63ff"/>
    <path id="Path_372" data-name="Path 372" d="M296.519,506.393h20.037l9.531-77.285H296.515Z" transform="translate(116.012 55.015)" fill="#9f616a"/>
    <path id="Path_373" data-name="Path 373" d="M476.741,679.779l39.46,0h0a25.148,25.148,0,0,1,25.147,25.145v.819l-64.608,0Z" transform="translate(-69.321 -124.912)" fill="#2f2e41"/>
    <path id="Path_374" data-name="Path 374" d="M164.1,480.547,180.535,492l52.008-57.957L208.28,417.138Z" transform="translate(64.203 50.333)" fill="#9f616a"/>
    <path id="Path_375" data-name="Path 375" d="M351.842,656.579l32.375,22.56h0a25.149,25.149,0,0,1,6.254,35.009l-.467.671L337,677.882Z" transform="translate(-123.996 -133.988)" fill="#2f2e41"/>
    <path id="Path_376" data-name="Path 376" d="M516.188,758.386,515.322,613.4,502.714,522.24l-23.505,80.17-.046.066-85.18,123.662-33.144-16.793.182-.431c2.025-4.818,49.754-117.969,62.583-117.969a6.928,6.928,0,0,0,5.9-2.594c3.765-5.028.7-15.7.668-15.8-3.672-15.229,5.561-20.415,7.4-21.281l4.947-102.114.513.035,134.1,9.406L571.51,586.262l-12.1,167.273-.416.047Z" transform="translate(-114.667 -215.145)" fill="#2f2e41"/>
    <path id="Path_377" data-name="Path 377" d="M558.5,544.555l-.58-.047L413.7,532.882l.356-47.72,7.059-124.6.04-.086,28.747-62.41,20.378-9.227,29.732-1.565.072.018,27.133,6.722,28.226,202.621Z" transform="translate(-93.986 -278.479)" fill="#6c63ff"/>
    <ellipse id="Ellipse_20" data-name="Ellipse 20" cx="37.973" cy="37.972" rx="37.973" ry="37.972" transform="translate(340.935 -55.623) rotate(-28.663)" fill="#9f616a"/>
    <path id="Path_378" data-name="Path 378" d="M439.943,274.333v-14.8s-11.931-14.052,1.193-17.592c0,0,3.579-35.4,34.6-18.879,0,0,42.953-7.079,38.18,17.7,0,0,10.738-6.469,7.159,10.05l-6.922,26.609s3.343-17.577-7.395-19.937l-5.966-3.54s-16.7,16.519-41.76-3.54c0,0-10.738-2.563-9.545,8.056S439.943,274.333,439.943,274.333Z" transform="translate(-85.66 -305.319)" fill="#2f2e41"/>
    <path id="Path_379" data-name="Path 379" d="M478.985,459.03A15.077,15.077,0,0,0,461.422,444l-18.27-29.212-20.46,6.773,26.38,40.89a15.159,15.159,0,0,0,29.913-3.416Z" transform="translate(-90.467 -228.591)" fill="#9f616a"/>
    <path id="Path_380" data-name="Path 380" d="M438.531,496.828l-33.053-67.107.029-.163c.133-.743,13.438-74.618,23.614-101.772,10.24-27.326,24.257-32.813,24.849-33.033l.3-.11L466.835,306.7l-17.41,116.207,18.767,56.045Z" transform="translate(-97.203 -275.597)" fill="#6c63ff"/>
    <rect id="Rectangle_23" data-name="Rectangle 23" width="51.908" height="51.908" transform="translate(887.177 18.632)" fill="#f1f1f1"/>
    <rect id="Rectangle_24" data-name="Rectangle 24" width="51.908" height="51.908" transform="translate(480.943 220.621)" fill="#f1f1f1"/>
    <path id="Path_381" data-name="Path 381" d="M635.922,428.31H1046.3V220.556H635.922Z" transform="translate(-125.844 -178.527)" fill="#fff"/>
    <path id="Path_382" data-name="Path 382" d="M1050.077,432.08H632.922V217.556h417.152ZM639.7,425.31h403.61V224.327H639.693Z" transform="translate(-126.23 -178.912)" fill="#e5e5e5"/>
    <rect id="Rectangle_25" data-name="Rectangle 25" width="315.741" height="10.471" transform="translate(559.337 114.905)" fill="#e5e5e5"/>
    <rect id="Rectangle_26" data-name="Rectangle 26" width="315.741" height="10.471" transform="translate(559.337 140.298)" fill="#e5e5e5"/>
    <rect id="Rectangle_27" data-name="Rectangle 27" width="58.678" height="9.087" transform="translate(816.399 177.791)" fill="#6c63ff"/>
    <path id="Path_383" data-name="Path 383" d="M715.357,700.921H185.288a1.391,1.391,0,0,1,0-2.783H715.357a1.391,1.391,0,1,1,0,2.783Z" transform="translate(-183.896 -117.728)" fill="#cbcbcb"/>
  </g>
</svg>
